<?xml version="1.0" encoding="utf-8"?>
<!-- Generator: Adobe Illustrator 15.0.0, SVG Export Plug-In . SVG Version: 6.00 Build 0)  -->
<!DOCTYPE svg PUBLIC "-//W3C//DTD SVG 1.1//EN" "http://www.w3.org/Graphics/SVG/1.1/DTD/svg11.dtd">
<svg version="1.1" id="Calque_1" xmlns="http://www.w3.org/2000/svg" xmlns:xlink="http://www.w3.org/1999/xlink" x="0px" y="0px"
	 width="1280px" height="800px" viewBox="0 0 1280 800" enable-background="new 0 0 1280 800" xml:space="preserve">
<text transform="matrix(1 0 0 1 76.1816 440.915)" fill="#330000" font-family="'Roboto-Medium'" font-size="36">Gabarits</text>
<rect x="76.182" y="472.401" fill="none" width="264" height="135.349"/>
<text transform="matrix(1 0 0 1 76.1816 489.1592)"><tspan x="0" y="0" font-family="'Roboto-Regular'" font-size="22">Définissent les règles  </tspan><tspan x="0" y="26.399" font-family="'Roboto-Regular'" font-size="22">de présentation (thème, </tspan><tspan x="0" y="52.8" font-family="'Roboto-Regular'" font-size="22">interactivité, ...) d’une </tspan><tspan x="0" y="79.2" font-family="'Roboto-Regular'" font-size="22">édition pour un support </tspan><tspan x="0" y="105.601" font-family="'Roboto-Regular'" font-size="22">donné.</tspan></text>
<text transform="matrix(1 0 0 1 930.1816 440.915)" fill="#330000" font-family="'Roboto-Medium'" font-size="36">Contextualiseurs</text>
<rect x="934.562" y="472.401" fill="none" width="271.256" height="183.593"/>
<text transform="matrix(1 0 0 1 934.5625 489.1592)"><tspan x="0" y="0" font-family="'Roboto-Regular'" font-size="22">Produisent  </tspan><tspan x="0" y="26.399" font-family="'Roboto-Regular'" font-size="22">une représentation  </tspan><tspan x="0" y="52.8" font-family="'Roboto-Regular'" font-size="22">d’une ressource selon  </tspan><tspan x="0" y="79.2" font-family="'Roboto-Regular'" font-size="22">un type de </tspan><tspan x="0" y="105.601" font-family="'Roboto-Regular'" font-size="22">contextualisation donné </tspan><tspan x="0" y="132" font-family="'Roboto-Regular'" font-size="22">(référence bibliographique, </tspan><tspan x="0" y="158.4" font-family="'Roboto-Regular'" font-size="22">visualisation, vidéo, ...).</tspan></text>
<text transform="matrix(1 0 0 1 540.562 79.4014)" fill="#330000" font-family="'Roboto-Medium'" font-size="36">Générateurs</text>
<rect x="544.943" y="103.889" fill="none" width="264" height="96"/>
<text transform="matrix(1 0 0 1 544.9429 120.6455)"><tspan x="0" y="0" font-family="'Roboto-Regular'" font-size="22">Transforment une édition </tspan><tspan x="0" y="26.4" font-family="'Roboto-Regular'" font-size="22">peritext en un fichier  </tspan><tspan x="0" y="52.8" font-family="'Roboto-Regular'" font-size="22">(html, pdf,...) selon  </tspan><tspan x="0" y="79.2" font-family="'Roboto-Regular'" font-size="22">des paramètres donnés.</tspan></text>
<rect x="482.943" y="270.401" fill="#FFFFFF" stroke="#878787" stroke-miterlimit="10" width="326" height="422.241"/>
<text transform="matrix(1 0 0 1 519.0396 322.7515)" font-family="'Roboto-Regular'" font-size="22">Titre</text>
<line fill="none" stroke="#878787" stroke-miterlimit="10" x1="520.515" y1="346.75" x2="784.515" y2="346.75"/>
<line fill="none" stroke="#878787" stroke-miterlimit="10" x1="520.515" y1="355.75" x2="784.515" y2="355.75"/>
<line fill="none" stroke="#878787" stroke-miterlimit="10" x1="520.515" y1="364.75" x2="784.515" y2="364.75"/>
<line fill="none" stroke="#878787" stroke-miterlimit="10" x1="520.515" y1="373.75" x2="784.515" y2="373.75"/>
<line fill="none" stroke="#878787" stroke-miterlimit="10" x1="520.515" y1="382.75" x2="784.515" y2="382.75"/>
<line fill="none" stroke="#878787" stroke-miterlimit="10" x1="520.515" y1="391.75" x2="784.515" y2="391.75"/>
<line fill="none" stroke="#878787" stroke-miterlimit="10" x1="520.515" y1="400.75" x2="784.515" y2="400.75"/>
<line fill="none" stroke="#878787" stroke-miterlimit="10" x1="520.515" y1="409.75" x2="784.515" y2="409.75"/>
<line fill="none" stroke="#878787" stroke-miterlimit="10" x1="520.515" y1="418.75" x2="784.515" y2="418.75"/>
<line fill="none" stroke="#878787" stroke-miterlimit="10" x1="520.515" y1="427.75" x2="784.515" y2="427.75"/>
<line fill="none" stroke="#878787" stroke-miterlimit="10" x1="520.515" y1="436.75" x2="784.515" y2="436.75"/>
<line fill="none" stroke="#878787" stroke-miterlimit="10" x1="520.515" y1="571.75" x2="784.515" y2="571.75"/>
<line fill="none" stroke="#878787" stroke-miterlimit="10" x1="520.515" y1="580.75" x2="784.515" y2="580.75"/>
<line fill="none" stroke="#878787" stroke-miterlimit="10" x1="520.515" y1="589.75" x2="784.515" y2="589.75"/>
<line fill="none" stroke="#878787" stroke-miterlimit="10" x1="520.515" y1="598.75" x2="784.515" y2="598.75"/>
<line fill="none" stroke="#878787" stroke-miterlimit="10" x1="520.515" y1="607.75" x2="784.515" y2="607.75"/>
<line fill="none" stroke="#878787" stroke-miterlimit="10" x1="520.515" y1="616.75" x2="784.515" y2="616.75"/>
<line fill="none" stroke="#878787" stroke-miterlimit="10" x1="520.515" y1="625.75" x2="784.515" y2="625.75"/>
<line fill="none" stroke="#878787" stroke-miterlimit="10" x1="520.515" y1="634.75" x2="784.515" y2="634.75"/>
<line fill="none" stroke="#878787" stroke-miterlimit="10" x1="520.515" y1="643.75" x2="784.515" y2="643.75"/>
<rect x="520.515" y="454.745" fill="none" stroke="#878787" stroke-miterlimit="10" width="264" height="101.995"/>
<g>
	<g>
		
			<line fill="none" stroke="#575756" stroke-width="3" stroke-miterlimit="10" x1="652.515" y1="228.152" x2="652.515" y2="258.148"/>
		<g>
			<polygon fill="#575756" points="640.245,248.207 642.442,246.161 652.512,256.996 662.584,246.161 664.781,248.207 
				652.512,261.401 			"/>
		</g>
	</g>
</g>
<line fill="none" stroke="#575756" stroke-width="7" stroke-miterlimit="10" x1="906.021" y1="472.401" x2="906.021" y2="625.75"/>
<g>
	<g>
		
			<line fill="none" stroke="#575756" stroke-width="3" stroke-miterlimit="10" x1="359.548" y1="313.752" x2="471.289" y2="313.752"/>
		<g>
			<polygon fill="#575756" points="461.35,326.021 459.303,323.824 470.139,313.755 459.303,303.683 461.35,301.485 
				474.543,313.755 			"/>
		</g>
	</g>
</g>
<g>
	<g>
		
			<line fill="none" stroke="#575756" stroke-width="3" stroke-miterlimit="10" x1="906.021" y1="516.242" x2="794.279" y2="516.242"/>
		<g>
			<polygon fill="#575756" points="804.221,503.973 806.267,506.17 795.432,516.239 806.267,526.312 804.221,528.509 
				791.026,516.239 			"/>
		</g>
	</g>
</g>
<line fill="none" stroke="#575756" stroke-width="7" stroke-miterlimit="10" x1="359.548" y1="270.401" x2="359.548" y2="692.643"/>
<line fill="none" stroke="#575756" stroke-width="7" stroke-miterlimit="10" x1="482.943" y1="226.756" x2="808.943" y2="226.756"/>
<rect fill="none" width="1280" height="800"/>
</svg>
