<?xml version="1.0" encoding="utf-8"?>
<!-- Generator: Adobe Illustrator 15.0.0, SVG Export Plug-In . SVG Version: 6.00 Build 0)  -->
<!DOCTYPE svg PUBLIC "-//W3C//DTD SVG 1.1//EN" "http://www.w3.org/Graphics/SVG/1.1/DTD/svg11.dtd">
<svg version="1.1" id="Calque_1" xmlns="http://www.w3.org/2000/svg" xmlns:xlink="http://www.w3.org/1999/xlink" x="0px" y="0px"
	 width="1280px" height="800px" viewBox="0 0 1280 800" enable-background="new 0 0 1280 800" xml:space="preserve">
<g>
	<text transform="matrix(1 0 0 1 940.0771 174.4053)" font-family="'Roboto-Bold'" font-size="28">Contextualization</text>
</g>
<g>
	<text transform="matrix(1 0 0 1 507.0703 174.4053)" font-family="'Roboto-Bold'" font-size="28">Contextualizer</text>
</g>
<text transform="matrix(1 0 0 1 107.5811 174.4053)" font-family="'Roboto-Bold'" font-size="28">Resource</text>
<text transform="matrix(1 0 0 1 435.1309 581.0801)" fill="#938D85" font-family="'Calibri-Italic'" font-size="20">...</text>
<rect x="123.131" y="362.459" fill="none" width="217.489" height="293.985"/>
<text transform="matrix(1 0 0 1 123.1309 376.1699)"><tspan x="0" y="0" font-family="'Roboto-Italic'" font-size="18">Examples:</tspan><tspan x="0" y="43.2" font-family="'Roboto-Regular'" font-size="18">Data source</tspan><tspan x="0" y="86.4" font-family="'Roboto-Regular'" font-size="18">Bibliographic record</tspan><tspan x="0" y="129.6" font-family="'Roboto-Regular'" font-size="18">Entity (person, place,  </tspan><tspan x="0" y="151.2" font-family="'Roboto-Regular'" font-size="18">event,...)</tspan></text>
<rect x="557.232" y="362.459" fill="none" width="217.488" height="293.985"/>
<text transform="matrix(1 0 0 1 557.2319 376.1699)"><tspan x="0" y="0" font-family="'Roboto-Italic'" font-size="18">Examples</tspan><tspan x="78.214" y="0" font-family="'Roboto-Regular'" font-size="18">:</tspan><tspan x="0" y="43.2" font-family="'Roboto-Regular'" font-size="18">Visualization parameters</tspan><tspan x="0" y="86.4" font-family="'Roboto-Regular'" font-size="18">Citation with page n.</tspan><tspan x="0" y="129.6" font-family="'Roboto-Regular'" font-size="18">Glossary mention</tspan></text>
<g>
	<polygon fill="none" stroke="#000000" stroke-width="2" stroke-miterlimit="10" points="199.075,217 123,217 123,340 223,340 
		223,246.812 	"/>
	<g>
		<path d="M179.154,278.143c-0.07,1.703-0.57,3.172-1.5,4.406s-2.32,1.852-4.172,1.852c-0.609,0-1.137-0.172-1.582-0.516
			s-0.762-0.824-0.949-1.441c-0.344,0.641-0.771,1.121-1.283,1.441s-1.111,0.48-1.799,0.48c-1.102,0-1.947-0.465-2.537-1.395
			s-0.807-2.16-0.65-3.691c0.195-1.984,0.756-3.574,1.682-4.77s2.049-1.793,3.369-1.793c0.906,0,1.635,0.102,2.186,0.305
			s1.154,0.516,1.811,0.938l-0.035,0.047h0.059l-0.598,6.715c-0.055,0.742,0,1.25,0.164,1.523s0.387,0.41,0.668,0.41
			c0.898,0,1.619-0.426,2.162-1.277s0.846-1.93,0.908-3.234c0.125-2.758-0.408-4.91-1.6-6.457s-3.033-2.32-5.525-2.32
			c-2.367,0-4.258,0.832-5.672,2.496s-2.18,3.895-2.297,6.691c-0.133,2.773,0.438,4.961,1.711,6.562s3.105,2.402,5.496,2.402
			c0.664,0,1.35-0.078,2.057-0.234s1.314-0.352,1.822-0.586l0.445,1.723c-0.523,0.328-1.189,0.584-1.998,0.768
			s-1.6,0.275-2.373,0.275c-3.094,0-5.479-0.973-7.154-2.918s-2.447-4.609-2.314-7.992c0.141-3.336,1.139-6.006,2.994-8.01
			s4.299-3.006,7.33-3.006c3.023,0,5.34,0.947,6.949,2.842S179.279,274.861,179.154,278.143z M167.318,279.279
			c-0.078,0.992-0.006,1.744,0.217,2.256s0.584,0.768,1.084,0.768c0.438,0,0.834-0.102,1.189-0.305s0.674-0.578,0.955-1.125
			c0-0.031,0-0.057,0-0.076s0.004-0.045,0.012-0.076l0.516-5.812c-0.18-0.055-0.359-0.098-0.539-0.129s-0.367-0.047-0.562-0.047
			c-0.867,0-1.527,0.377-1.98,1.131S167.459,277.756,167.318,279.279z"/>
	</g>
</g>
<g>
	<text transform="matrix(1 0 0 1 587.4658 285.333)" font-family="'Roboto-Bold'" font-size="24">{...}</text>
	<circle fill="none" stroke="#000000" stroke-width="2" stroke-miterlimit="10" cx="604.8" cy="277" r="53.667"/>
</g>
<g>
	<rect x="970" y="218" fill="none" stroke="#000000" stroke-width="2" stroke-miterlimit="10" width="176" height="123"/>
	<circle fill="none" stroke="#000000" stroke-width="2" stroke-miterlimit="10" cx="1021.462" cy="258.667" r="17.333"/>
	<circle fill="none" stroke="#000000" stroke-width="2" stroke-miterlimit="10" cx="1073.463" cy="310.667" r="10"/>
	<circle fill="none" stroke="#000000" stroke-width="2" stroke-miterlimit="10" cx="1102.129" cy="255.334" r="15.333"/>
	
		<line fill="none" stroke="#000000" stroke-width="2" stroke-miterlimit="10" x1="1077.656" y1="301.598" x2="1093.782" y2="268.193"/>
	
		<line fill="none" stroke="#000000" stroke-width="2" stroke-miterlimit="10" x1="1038.795" y1="258.667" x2="1086.796" y2="255.334"/>
</g>
<line fill="none" stroke="#000000" stroke-width="2" stroke-miterlimit="10" x1="1012" y1="362" x2="1117" y2="362"/>
<line fill="none" stroke="#000000" stroke-width="2" stroke-miterlimit="10" x1="998" y1="376" x2="1117" y2="376"/>
<line fill="none" stroke="#000000" stroke-width="2" stroke-miterlimit="10" x1="998" y1="390" x2="1117" y2="390"/>
<line fill="none" stroke="#000000" stroke-width="2" stroke-miterlimit="10" x1="998" y1="404" x2="1117" y2="404"/>
<line fill="none" stroke="#000000" stroke-width="2" stroke-miterlimit="10" x1="998" y1="418" x2="1117" y2="418"/>
<line fill="none" stroke="#000000" stroke-width="2" stroke-miterlimit="10" x1="998" y1="432" x2="1117" y2="432"/>
<line fill="none" stroke="#000000" stroke-width="2" stroke-miterlimit="10" x1="998" y1="446" x2="1117" y2="446"/>
<line fill="none" stroke="#000000" stroke-width="2" stroke-miterlimit="10" x1="998" y1="460" x2="1117" y2="460"/>
<line fill="none" stroke="#000000" stroke-width="2" stroke-miterlimit="10" x1="998" y1="474" x2="1117" y2="474"/>
<line fill="none" stroke="#000000" stroke-width="2" stroke-miterlimit="10" x1="1012" y1="488" x2="1117" y2="488"/>
<line fill="none" stroke="#000000" stroke-width="2" stroke-miterlimit="10" x1="998" y1="502" x2="1117" y2="502"/>
<line fill="none" stroke="#000000" stroke-width="2" stroke-miterlimit="10" x1="998" y1="516" x2="1117" y2="516"/>
<line fill="none" stroke="#000000" stroke-width="2" stroke-miterlimit="10" x1="998" y1="530" x2="1117" y2="530"/>
<line fill="none" stroke="#000000" stroke-width="2" stroke-miterlimit="10" x1="998" y1="544" x2="1117" y2="544"/>
<line fill="none" stroke="#000000" stroke-width="2" stroke-miterlimit="10" x1="1012" y1="572" x2="1117" y2="572"/>
<line fill="none" stroke="#000000" stroke-width="2" stroke-miterlimit="10" x1="1012" y1="586" x2="1117" y2="586"/>
<line fill="none" stroke="#000000" stroke-width="2" stroke-miterlimit="10" x1="1012" y1="600" x2="1117" y2="600"/>
<line fill="none" stroke="#000000" stroke-width="2" stroke-miterlimit="10" x1="1012" y1="614" x2="1117" y2="614"/>
<line fill="none" stroke="#000000" stroke-width="2" stroke-miterlimit="10" x1="1012" y1="628" x2="1117" y2="628"/>
<line fill="none" stroke="#000000" stroke-width="2" stroke-miterlimit="10" x1="1012" y1="642" x2="1117" y2="642"/>
<text transform="matrix(1 0 0 1 996.168 573)"><tspan x="0" y="0" font-family="'Roboto-Regular'" font-size="10">1</tspan><tspan x="0" y="11.5" font-family="'Roboto-Regular'" font-size="10">2</tspan><tspan x="0" y="23" font-family="'Roboto-Regular'" font-size="10">3</tspan><tspan x="0" y="34.5" font-family="'Roboto-Regular'" font-size="10">4 </tspan><tspan x="0" y="46" font-family="'Roboto-Regular'" font-size="10">5 </tspan><tspan x="0" y="57.5" font-family="'Roboto-Regular'" font-size="10">6</tspan><tspan x="0" y="69" font-family="'Roboto-Regular'" font-size="10">7</tspan></text>
<g>
	<g>
		<line fill="none" stroke="#000000" stroke-miterlimit="10" x1="232" y1="280.5" x2="238" y2="280.5"/>
		<line fill="none" stroke="#000000" stroke-miterlimit="10" stroke-dasharray="12,12" x1="251" y1="280.5" x2="519" y2="280.5"/>
		<line fill="none" stroke="#000000" stroke-miterlimit="10" x1="525" y1="280.5" x2="531" y2="280.5"/>
		<g>
			<polygon points="527.733,284.59 527.051,283.857 530.663,280.501 527.051,277.144 527.733,276.411 532.131,280.501 			"/>
		</g>
	</g>
</g>
<g>
	<g>
		<line fill="none" stroke="#000000" stroke-miterlimit="10" x1="676" y1="280.5" x2="682" y2="280.5"/>
		<line fill="none" stroke="#000000" stroke-miterlimit="10" stroke-dasharray="12,12" x1="694" y1="280.5" x2="947" y2="280.5"/>
		<line fill="none" stroke="#000000" stroke-miterlimit="10" x1="953" y1="280.5" x2="959" y2="280.5"/>
		<g>
			<polygon points="955.803,284.59 955.121,283.857 958.732,280.501 955.121,277.144 955.803,276.411 960.201,280.501 			"/>
		</g>
	</g>
</g>
<g>
	<g>
		<line fill="none" stroke="#000000" stroke-miterlimit="10" x1="232" y1="418.5" x2="531" y2="418.5"/>
		<g>
			<polygon points="527.733,422.59 527.051,421.857 530.663,418.501 527.051,415.144 527.733,414.411 532.131,418.501 			"/>
		</g>
	</g>
</g>
<g>
	<g>
		<line fill="none" stroke="#000000" stroke-miterlimit="10" x1="293" y1="460.5" x2="531" y2="460.5"/>
		<g>
			<polygon points="527.733,464.59 527.051,463.857 530.663,460.501 527.051,457.144 527.733,456.411 532.131,460.501 			"/>
		</g>
	</g>
</g>
<g>
	<g>
		<line fill="none" stroke="#000000" stroke-miterlimit="10" x1="293" y1="502.5" x2="531" y2="502.5"/>
		<g>
			<polygon points="527.733,506.59 527.051,505.857 530.663,502.501 527.051,499.144 527.733,498.411 532.131,502.501 			"/>
		</g>
	</g>
</g>
<g>
	<g>
		<path fill="none" stroke="#000000" stroke-miterlimit="10" d="M779.213,418c98.356,0,124.65-115.824,179.908-117.318"/>
		<g>
			<polygon points="956.019,304.977 955.3,304.281 958.735,300.743 954.955,297.576 955.6,296.81 960.201,300.668 			"/>
		</g>
	</g>
</g>
<line fill="none" stroke="#000000" stroke-width="6" stroke-miterlimit="10" x1="1044" y1="418" x2="1078" y2="418"/>
<line fill="none" stroke="#000000" stroke-width="6" stroke-miterlimit="10" x1="1007" y1="460" x2="1041" y2="460"/>
<g>
	<g>
		<path fill="none" stroke="#000000" stroke-miterlimit="10" d="M758.465,460c112.126,0,206.423-65.368,278.951-47.268"/>
		<g>
			<polygon points="1033.281,416.032 1032.774,415.169 1037.031,412.681 1034.239,408.616 1035.064,408.051 1038.465,413.001 			"/>
		</g>
	</g>
</g>
<g>
	<g>
		<path fill="none" stroke="#000000" stroke-miterlimit="10" d="M732.464,502c235.347,0,237.645-65.911,268.415-47.567"/>
		<g>
			<polygon points="995.967,456.438 995.727,455.467 1000.514,454.288 998.988,449.599 999.939,449.29 1001.797,455.001 			"/>
		</g>
	</g>
</g>
<g>
	<g>
		<path fill="none" stroke="#000000" stroke-miterlimit="10" d="M758.465,463.666c2.03,0,4.03,0.021,6,0.065"/>
		<path fill="none" stroke="#000000" stroke-miterlimit="10" stroke-dasharray="12.0928,12.0928" d="M776.546,464.284
			c118.114,8.344,120.434,98.479,203.471,107.061"/>
		<path fill="none" stroke="#000000" stroke-miterlimit="10" d="M986.049,571.814c1.955,0.104,3.953,0.165,5.997,0.182"/>
		<g>
			<polygon points="988.597,575.938 987.939,575.183 991.663,571.951 988.168,568.473 988.875,567.764 993.131,572.001 			"/>
		</g>
	</g>
</g>
<g>
	<g>
		<path fill="none" stroke="#000000" stroke-miterlimit="10" d="M732.464,505.666c2.028,0,4.028,0.021,6,0.061"/>
		<path fill="none" stroke="#000000" stroke-miterlimit="10" stroke-dasharray="11.8385,11.8385" d="M750.296,506.224
			c118.907,7.657,129.338,91.67,229.84,98.354"/>
		<path fill="none" stroke="#000000" stroke-miterlimit="10" d="M986.047,604.877c1.965,0.069,3.965,0.109,5.999,0.12"/>
		<g>
			<polygon points="988.626,608.972 987.964,608.222 991.663,604.962 988.142,601.51 988.843,600.796 993.131,605.001 			"/>
		</g>
	</g>
</g>
<rect x="78" y="109" fill="none" width="1123" height="582"/>
</svg>
