<?xml version="1.0" encoding="utf-8"?>
<!-- Generator: Adobe Illustrator 15.0.0, SVG Export Plug-In . SVG Version: 6.00 Build 0)  -->
<!DOCTYPE svg PUBLIC "-//W3C//DTD SVG 1.1//EN" "http://www.w3.org/Graphics/SVG/1.1/DTD/svg11.dtd">
<svg version="1.1" id="Calque_1" xmlns="http://www.w3.org/2000/svg" xmlns:xlink="http://www.w3.org/1999/xlink" x="0px" y="0px"
	 width="1280px" height="805px" viewBox="0 0 1280 805" enable-background="new 0 0 1280 805" xml:space="preserve">
<g>
	<g>
		<line fill="none" stroke="#1D1D1B" stroke-miterlimit="10" x1="457.946" y1="810" x2="457.946" y2="804"/>
		
			<line fill="none" stroke="#1D1D1B" stroke-miterlimit="10" stroke-dasharray="11.9104,11.9104" x1="457.946" y1="792.09" x2="457.946" y2="11.955"/>
		<line fill="none" stroke="#1D1D1B" stroke-miterlimit="10" x1="457.946" y1="6" x2="457.946" y2="0"/>
	</g>
</g>
<rect x="292.501" y="354" fill="none" stroke="#C6C6C5" stroke-miterlimit="10" width="107" height="146.5"/>
<g>
	<rect x="74.001" y="395.25" fill="#FFFFFF" stroke="#C6C6C5" stroke-miterlimit="10" width="79.5" height="64"/>
	<line fill="none" stroke="#C6C6C5" stroke-miterlimit="10" x1="74.001" y1="404" x2="153.501" y2="404"/>
	<line fill="none" stroke="#C6C6C5" stroke-miterlimit="10" x1="84.751" y1="395.25" x2="84.751" y2="459.25"/>
	<line fill="none" stroke="#C6C6C5" stroke-miterlimit="10" x1="108.751" y1="395.25" x2="108.751" y2="459.25"/>
	<line fill="none" stroke="#C6C6C5" stroke-miterlimit="10" x1="131.751" y1="395.25" x2="131.751" y2="459.25"/>
	<line fill="none" stroke="#C6C6C5" stroke-miterlimit="10" x1="140.751" y1="395.25" x2="140.751" y2="459.25"/>
</g>
<g>
	<rect x="306.251" y="395.25" fill="#FFFFFF" stroke="#C6C6C5" stroke-miterlimit="10" width="79.5" height="64"/>
	<line fill="none" stroke="#C6C6C5" stroke-miterlimit="10" x1="306.251" y1="404" x2="385.751" y2="404"/>
	<line fill="none" stroke="#C6C6C5" stroke-miterlimit="10" x1="317.001" y1="395.25" x2="317.001" y2="459.25"/>
	<line fill="none" stroke="#C6C6C5" stroke-miterlimit="10" x1="341.001" y1="395.25" x2="341.001" y2="459.25"/>
	<line fill="none" stroke="#C6C6C5" stroke-miterlimit="10" x1="364.001" y1="395.25" x2="364.001" y2="459.25"/>
	<line fill="none" stroke="#C6C6C5" stroke-miterlimit="10" x1="373.001" y1="395.25" x2="373.001" y2="459.25"/>
</g>
<text transform="matrix(1 0 0 1 74.001 79.625)"><tspan x="0" y="0" fill="#1D1D1B" font-family="'Roboto-Regular'" font-size="18">Modélisations documentaires traditionnelles</tspan><tspan x="0" y="14.4" fill="#1D1D1B" font-family="'Roboto-Regular'" font-size="12">solidarité entre une ressource</tspan><tspan x="0" y="28.8" fill="#1D1D1B" font-family="'Roboto-Regular'" font-size="12">et sa matérialisation dans le document</tspan></text>
<text transform="matrix(1 0 0 1 88.751 426)"><tspan x="0" y="0" fill="#1D1D1B" font-family="'Roboto-Regular'" font-size="9">ressource</tspan><tspan x="0" y="10.8" fill="#1D1D1B" font-family="'Roboto-Regular'" font-size="9">tableau</tspan></text>
<text transform="matrix(1 0 0 1 316.001 421)"><tspan x="0" y="0" fill="#1D1D1B" font-family="'Roboto-Regular'" font-size="9">matérialisation</tspan><tspan x="0" y="10.8" fill="#1D1D1B" font-family="'Roboto-Regular'" font-size="9">comme</tspan><tspan x="0" y="21.6" fill="#1D1D1B" font-family="'Roboto-Regular'" font-size="9">tableau</tspan></text>
<g>
	<g>
		<line fill="none" stroke="#575756" stroke-miterlimit="10" x1="165.001" y1="427.25" x2="277.916" y2="427.25"/>
		<g>
			<polygon fill="#575756" points="274.604,431.34 273.921,430.607 277.533,427.251 273.921,423.894 274.604,423.161 
				279.001,427.251 			"/>
		</g>
	</g>
</g>
<text transform="matrix(1 0 0 1 179.0034 731.875)"><tspan x="0" y="0" fill="#1D1D1B" font-family="'Roboto-Regular'" font-size="9">acte rhétorique :</tspan><tspan x="0" y="10.8" fill="#1D1D1B" font-family="'Roboto-Regular'" font-size="9">localisation dans le texte</tspan></text>
<rect x="960.446" y="121.625" fill="none" stroke="#C6C6C5" stroke-miterlimit="10" width="107" height="146.5"/>
<rect x="960.446" y="338.75" fill="none" stroke="#C6C6C5" stroke-miterlimit="10" width="107" height="146.5"/>
<rect x="960.446" y="514.625" fill="none" stroke="#C6C6C5" stroke-miterlimit="10" width="107" height="146.5"/>
<text transform="matrix(1 0 0 1 485.9463 79.625)"><tspan x="0" y="0" fill="#1D1D1B" font-family="'Roboto-Regular'" font-size="18">Modélisation documentaire de Peritext</tspan><tspan x="0" y="14.4" fill="#1D1D1B" font-family="'Roboto-Regular'" font-size="12">démultiplication des matérialisations possibles</tspan><tspan x="0" y="28.8" fill="#1D1D1B" font-family="'Roboto-Regular'" font-size="12">d’une même ressource</tspan></text>
<g>
	<rect x="476.946" y="380" fill="#FFFFFF" stroke="#C6C6C5" stroke-miterlimit="10" width="79.5" height="64"/>
	<line fill="none" stroke="#C6C6C5" stroke-miterlimit="10" x1="476.946" y1="388.75" x2="556.446" y2="388.75"/>
	<line fill="none" stroke="#C6C6C5" stroke-miterlimit="10" x1="487.696" y1="380" x2="487.696" y2="444"/>
	<line fill="none" stroke="#C6C6C5" stroke-miterlimit="10" x1="511.696" y1="380" x2="511.696" y2="444"/>
	<line fill="none" stroke="#C6C6C5" stroke-miterlimit="10" x1="534.696" y1="380" x2="534.696" y2="444"/>
	<line fill="none" stroke="#C6C6C5" stroke-miterlimit="10" x1="543.696" y1="380" x2="543.696" y2="444"/>
</g>
<text transform="matrix(1 0 0 1 491.6963 410.75)"><tspan x="0" y="0" fill="#1D1D1B" font-family="'Roboto-Regular'" font-size="9">ressource</tspan><tspan x="0" y="10.8" fill="#1D1D1B" font-family="'Roboto-Regular'" font-size="9">tableau</tspan></text>
<g>
	<rect x="974.196" y="162.875" fill="#FFFFFF" stroke="#C6C6C5" stroke-miterlimit="10" width="79.5" height="64"/>
	<line fill="none" stroke="#C6C6C5" stroke-miterlimit="10" x1="974.196" y1="171.625" x2="1053.696" y2="171.625"/>
	<line fill="none" stroke="#C6C6C5" stroke-miterlimit="10" x1="984.946" y1="162.875" x2="984.946" y2="226.875"/>
	<line fill="none" stroke="#C6C6C5" stroke-miterlimit="10" x1="1008.946" y1="162.875" x2="1008.946" y2="226.875"/>
	<line fill="none" stroke="#C6C6C5" stroke-miterlimit="10" x1="1031.946" y1="162.875" x2="1031.946" y2="226.875"/>
	<line fill="none" stroke="#C6C6C5" stroke-miterlimit="10" x1="1040.946" y1="162.875" x2="1040.946" y2="226.875"/>
</g>
<text transform="matrix(1 0 0 1 983.9463 188.625)"><tspan x="0" y="0" fill="#1D1D1B" font-family="'Roboto-Regular'" font-size="9">matérialisation</tspan><tspan x="0" y="10.8" fill="#1D1D1B" font-family="'Roboto-Regular'" font-size="9">comme</tspan><tspan x="0" y="21.6" fill="#1D1D1B" font-family="'Roboto-Regular'" font-size="9">tableau</tspan></text>
<text transform="matrix(1 0 0 1 983.9463 405.375)"><tspan x="0" y="0" fill="#1D1D1B" font-family="'Roboto-Regular'" font-size="9">matérialisation</tspan><tspan x="0" y="10.8" fill="#1D1D1B" font-family="'Roboto-Regular'" font-size="9">comme</tspan><tspan x="0" y="21.6" fill="#1D1D1B" font-family="'Roboto-Regular'" font-size="9">référence statique</tspan></text>
<text transform="matrix(1 0 0 1 1126.9463 405.375)"><tspan x="0" y="0" fill="#1D1D1B" font-family="'Roboto-Regular'" font-size="9">matérialisation</tspan><tspan x="0" y="10.8" fill="#1D1D1B" font-family="'Roboto-Regular'" font-size="9">comme</tspan><tspan x="0" y="21.6" fill="#1D1D1B" font-family="'Roboto-Regular'" font-size="9">référence interactive</tspan></text>
<text transform="matrix(1 0 0 1 983.9463 608.375)"><tspan x="0" y="0" fill="#1D1D1B" font-family="'Roboto-Regular'" font-size="9">matérialisation</tspan><tspan x="0" y="10.8" fill="#1D1D1B" font-family="'Roboto-Regular'" font-size="9">comme</tspan><tspan x="0" y="21.6" fill="#1D1D1B" font-family="'Roboto-Regular'" font-size="9">visualisation</tspan></text>
<text transform="matrix(1 0 0 1 1126.9463 608.375)"><tspan x="0" y="0" fill="#1D1D1B" font-family="'Roboto-Regular'" font-size="9">matérialisation</tspan><tspan x="0" y="10.8" fill="#1D1D1B" font-family="'Roboto-Regular'" font-size="9">comme</tspan><tspan x="0" y="21.6" fill="#1D1D1B" font-family="'Roboto-Regular'" font-size="9">visualisation interactive</tspan></text>
<g>
	<rect x="1117.196" y="162.875" fill="#FFFFFF" stroke="#C6C6C5" stroke-miterlimit="10" width="79.5" height="64"/>
	<line fill="none" stroke="#C6C6C5" stroke-miterlimit="10" x1="1117.196" y1="171.625" x2="1196.696" y2="171.625"/>
	<line fill="none" stroke="#C6C6C5" stroke-miterlimit="10" x1="1127.946" y1="162.875" x2="1127.946" y2="226.875"/>
	<line fill="none" stroke="#C6C6C5" stroke-miterlimit="10" x1="1151.946" y1="162.875" x2="1151.946" y2="226.875"/>
	<line fill="none" stroke="#C6C6C5" stroke-miterlimit="10" x1="1174.946" y1="162.875" x2="1174.946" y2="226.875"/>
	<line fill="none" stroke="#C6C6C5" stroke-miterlimit="10" x1="1183.946" y1="162.875" x2="1183.946" y2="226.875"/>
</g>
<text transform="matrix(1 0 0 1 1126.9463 188.625)"><tspan x="0" y="0" fill="#1D1D1B" font-family="'Roboto-Regular'" font-size="9">matérialisation</tspan><tspan x="0" y="10.8" fill="#1D1D1B" font-family="'Roboto-Regular'" font-size="9">comme</tspan><tspan x="0" y="21.6" fill="#1D1D1B" font-family="'Roboto-Regular'" font-size="9">interactif</tspan></text>
<g>
	<g>
		<line fill="none" stroke="#575756" stroke-miterlimit="10" x1="567.946" y1="412" x2="662.862" y2="411.814"/>
		<g>
			<polygon fill="#575756" points="659.557,415.911 658.873,415.18 662.478,411.816 658.859,408.466 659.54,407.732 
				663.946,411.813 			"/>
		</g>
	</g>
</g>
<g>
	<g>
		<line fill="none" stroke="#575756" stroke-miterlimit="10" x1="567.946" y1="412" x2="663.033" y2="351.147"/>
		<g>
			<polygon fill="#575756" points="662.446,356.378 661.478,356.129 662.71,351.354 657.858,350.474 658.038,349.489 
				663.947,350.563 			"/>
		</g>
	</g>
</g>
<g>
	<g>
		<line fill="none" stroke="#575756" stroke-miterlimit="10" x1="567.946" y1="412" x2="663.022" y2="470.37"/>
		<g>
			<polygon fill="#575756" points="658.059,472.122 657.86,471.141 662.694,470.17 661.373,465.419 662.338,465.152 
				663.946,470.938 			"/>
		</g>
	</g>
</g>
<g>
	<g>
		<polyline fill="none" stroke="#575756" stroke-miterlimit="10" points="769.946,431.625 769.946,437.625 763.946,437.625 		"/>
		
			<line fill="none" stroke="#575756" stroke-miterlimit="10" stroke-dasharray="10.8571,10.8571" x1="753.089" y1="437.625" x2="693.375" y2="437.625"/>
		<polyline fill="none" stroke="#575756" stroke-miterlimit="10" points="687.946,437.625 681.946,437.625 681.946,431.625 		"/>
		
			<line fill="none" stroke="#575756" stroke-miterlimit="10" stroke-dasharray="14.75,14.75" x1="681.946" y1="416.875" x2="681.946" y2="394.75"/>
		<polyline fill="none" stroke="#575756" stroke-miterlimit="10" points="681.946,387.375 681.946,381.375 687.946,381.375 		"/>
		
			<line fill="none" stroke="#575756" stroke-miterlimit="10" stroke-dasharray="10.8571,10.8571" x1="698.804" y1="381.375" x2="758.518" y2="381.375"/>
		<polyline fill="none" stroke="#575756" stroke-miterlimit="10" points="763.946,381.375 769.946,381.375 769.946,387.375 		"/>
		
			<line fill="none" stroke="#575756" stroke-miterlimit="10" stroke-dasharray="14.75,14.75" x1="769.946" y1="402.125" x2="769.946" y2="424.25"/>
	</g>
</g>
<text transform="matrix(1 0 0 1 691.9463 405.375)"><tspan x="0" y="0" fill="#1D1D1B" font-family="'Roboto-Regular'" font-size="9">contextualisation</tspan><tspan x="0" y="10.8" fill="#1D1D1B" font-family="'Roboto-Regular'" font-size="9">biblio</tspan></text>
<g>
	<g>
		<polyline fill="none" stroke="#575756" stroke-miterlimit="10" points="769.946,368.375 769.946,374.375 763.946,374.375 		"/>
		
			<line fill="none" stroke="#575756" stroke-miterlimit="10" stroke-dasharray="10.8571,10.8571" x1="753.089" y1="374.375" x2="693.375" y2="374.375"/>
		<polyline fill="none" stroke="#575756" stroke-miterlimit="10" points="687.946,374.375 681.946,374.375 681.946,368.375 		"/>
		
			<line fill="none" stroke="#575756" stroke-miterlimit="10" stroke-dasharray="14.75,14.75" x1="681.946" y1="353.625" x2="681.946" y2="331.5"/>
		<polyline fill="none" stroke="#575756" stroke-miterlimit="10" points="681.946,324.125 681.946,318.125 687.946,318.125 		"/>
		
			<line fill="none" stroke="#575756" stroke-miterlimit="10" stroke-dasharray="10.8571,10.8571" x1="698.804" y1="318.125" x2="758.518" y2="318.125"/>
		<polyline fill="none" stroke="#575756" stroke-miterlimit="10" points="763.946,318.125 769.946,318.125 769.946,324.125 		"/>
		
			<line fill="none" stroke="#575756" stroke-miterlimit="10" stroke-dasharray="14.75,14.75" x1="769.946" y1="338.875" x2="769.946" y2="361"/>
	</g>
</g>
<text transform="matrix(1 0 0 1 691.9463 342.125)"><tspan x="0" y="0" fill="#1D1D1B" font-family="'Roboto-Regular'" font-size="9">contextualisation</tspan><tspan x="0" y="10.8" fill="#1D1D1B" font-family="'Roboto-Regular'" font-size="9">tableau</tspan></text>
<g>
	<g>
		<polyline fill="none" stroke="#575756" stroke-miterlimit="10" points="769.946,497.375 769.946,503.375 763.946,503.375 		"/>
		
			<line fill="none" stroke="#575756" stroke-miterlimit="10" stroke-dasharray="10.8571,10.8571" x1="753.089" y1="503.375" x2="693.375" y2="503.375"/>
		<polyline fill="none" stroke="#575756" stroke-miterlimit="10" points="687.946,503.375 681.946,503.375 681.946,497.375 		"/>
		
			<line fill="none" stroke="#575756" stroke-miterlimit="10" stroke-dasharray="14.75,14.75" x1="681.946" y1="482.625" x2="681.946" y2="460.5"/>
		<polyline fill="none" stroke="#575756" stroke-miterlimit="10" points="681.946,453.125 681.946,447.125 687.946,447.125 		"/>
		
			<line fill="none" stroke="#575756" stroke-miterlimit="10" stroke-dasharray="10.8571,10.8571" x1="698.804" y1="447.125" x2="758.518" y2="447.125"/>
		<polyline fill="none" stroke="#575756" stroke-miterlimit="10" points="763.946,447.125 769.946,447.125 769.946,453.125 		"/>
		
			<line fill="none" stroke="#575756" stroke-miterlimit="10" stroke-dasharray="14.75,14.75" x1="769.946" y1="467.875" x2="769.946" y2="490"/>
	</g>
</g>
<text transform="matrix(1 0 0 1 691.9463 471.125)"><tspan x="0" y="0" fill="#1D1D1B" font-family="'Roboto-Regular'" font-size="9">contextualisation</tspan><tspan x="0" y="10.8" fill="#1D1D1B" font-family="'Roboto-Regular'" font-size="9">visualisation</tspan></text>
<g>
	<g>
		<line fill="none" stroke="#575756" stroke-miterlimit="10" x1="784.946" y1="475.25" x2="948.053" y2="587.261"/>
		<g>
			<polygon fill="#575756" points="943.006,588.757 942.858,587.767 947.735,587.045 946.659,582.232 947.636,582.015 
				948.945,587.876 			"/>
		</g>
	</g>
</g>
<g>
	<g>
		<line fill="none" stroke="#575756" stroke-miterlimit="10" x1="784.946" y1="409.5" x2="947.862" y2="409.5"/>
		<g>
			<polygon fill="#575756" points="944.548,413.59 943.866,412.857 947.478,409.501 943.866,406.144 944.548,405.411 
				948.946,409.501 			"/>
		</g>
	</g>
</g>
<g>
	<g>
		<line fill="none" stroke="#575756" stroke-miterlimit="10" x1="784.946" y1="349.062" x2="948.156" y2="195.618"/>
		<g>
			<polygon fill="#575756" points="948.544,200.867 947.545,200.801 947.877,195.882 942.946,195.909 942.941,194.908 
				948.947,194.876 			"/>
		</g>
	</g>
</g>
<g>
	<rect x="1084.446" y="338.75" fill="none" stroke="#C6C6C5" stroke-miterlimit="10" width="163.5" height="146.5"/>
	<polyline fill="none" stroke="#C6C6C5" stroke-miterlimit="10" points="1084.446,355.625 1102.946,355.625 1113.946,342.125 
		1150.946,342.125 1166.196,355.625 1247.946,355.625 	"/>
</g>
<g>
	<rect x="1084.446" y="121.625" fill="none" stroke="#C6C6C5" stroke-miterlimit="10" width="163.5" height="146.5"/>
	<polyline fill="none" stroke="#C6C6C5" stroke-miterlimit="10" points="1084.446,138.5 1102.946,138.5 1113.946,125 1150.946,125 
		1166.196,138.5 1247.946,138.5 	"/>
</g>
<g>
	<rect x="1084.446" y="514.625" fill="none" stroke="#C6C6C5" stroke-miterlimit="10" width="163.5" height="146.5"/>
	<polyline fill="none" stroke="#C6C6C5" stroke-miterlimit="10" points="1084.446,531.5 1102.946,531.5 1113.946,518 1150.946,518 
		1166.196,531.5 1247.946,531.5 	"/>
</g>
<g>
	<rect x="984.946" y="566.625" fill="#C6C6C5" width="7" height="30"/>
	<rect x="997.446" y="549.625" fill="#C6C6C5" width="7" height="47"/>
	<rect x="1009.946" y="581.625" fill="#C6C6C5" width="7" height="15"/>
	<rect x="1022.446" y="566.625" fill="#C6C6C5" width="7" height="30"/>
	<rect x="1034.946" y="556.625" fill="#C6C6C5" width="7" height="40"/>
</g>
<g>
	<rect x="1128.446" y="566.625" fill="#C6C6C5" width="7" height="30"/>
	<rect x="1140.946" y="549.625" fill="#C6C6C5" width="7" height="47"/>
	<rect x="1153.446" y="581.625" fill="#C6C6C5" width="7" height="15"/>
	<rect x="1165.946" y="566.625" fill="#C6C6C5" width="7" height="30"/>
	<rect x="1178.446" y="556.625" fill="#C6C6C5" width="7" height="40"/>
</g>
<text transform="matrix(1 0 0 1 567.9463 731.875)"><tspan x="0" y="0" fill="#1D1D1B" font-family="'Roboto-Regular'" font-size="9">acte rhétorique n°1 :</tspan><tspan x="0" y="10.8" fill="#1D1D1B" font-family="'Roboto-Regular'" font-size="9">type de contextualisation</tspan></text>
<text transform="matrix(1 0 0 1 798.4463 731.875)"><tspan x="0" y="0" fill="#1D1D1B" font-family="'Roboto-Regular'" font-size="9">acte rhétorique n°2 :</tspan><tspan x="0" y="10.8" fill="#1D1D1B" font-family="'Roboto-Regular'" font-size="9">paramètres de contextualisation</tspan></text>
<text transform="matrix(1 0 0 1 798.4463 761.875)"><tspan x="0" y="0" fill="#1D1D1B" font-family="'Roboto-Regular'" font-size="9">acte rhétorique n°3 :</tspan><tspan x="0" y="10.8" fill="#1D1D1B" font-family="'Roboto-Regular'" font-size="9">localisation</tspan><tspan x="0" y="21.6" fill="#1D1D1B" font-family="'Roboto-Regular'" font-size="9">dans le texte</tspan></text>
<polyline fill="none" stroke="#C6C6C5" stroke-miterlimit="10" points="153.501,678.75 153.501,712.339 292.501,712.339 
	292.501,678.75 "/>
<polyline fill="none" stroke="#C6C6C5" stroke-miterlimit="10" points="546.446,678.75 546.446,712.339 685.446,712.339 
	685.446,678.75 "/>
<text transform="matrix(1 0 0 1 967.9463 731.875)"><tspan x="0" y="0" fill="#1D1D1B" font-family="'Roboto-Regular'" font-size="9">acte rhétorique n°4 :</tspan><tspan x="0" y="10.8" fill="#1D1D1B" font-family="'Roboto-Regular'" font-size="9">paramètres de contextualisation</tspan><tspan x="0" y="21.6" fill="#1D1D1B" font-family="'Roboto-Regular'" font-size="9">spécifiques à chaque format</tspan></text>
<polyline fill="none" stroke="#C6C6C5" stroke-miterlimit="10" points="960.446,678.75 960.446,712.339 1247.946,712.339 
	1247.946,678.75 "/>
<polyline fill="none" stroke="#C6C6C5" stroke-miterlimit="10" points="797.446,678.75 797.446,712.339 936.446,712.339 
	936.446,678.75 "/>
<rect fill="none" width="1280" height="805"/>
</svg>
