<?xml version="1.0" encoding="utf-8"?>
<!-- Generator: Adobe Illustrator 15.0.0, SVG Export Plug-In . SVG Version: 6.00 Build 0)  -->
<!DOCTYPE svg PUBLIC "-//W3C//DTD SVG 1.1//EN" "http://www.w3.org/Graphics/SVG/1.1/DTD/svg11.dtd">
<svg version="1.1" id="Calque_1" xmlns="http://www.w3.org/2000/svg" xmlns:xlink="http://www.w3.org/1999/xlink" x="0px" y="0px"
	 width="1280px" height="800px" viewBox="0 0 1280 800" enable-background="new 0 0 1280 800" xml:space="preserve">
<g>
	<g>
		<line fill="none" stroke="#1D1D1B" stroke-miterlimit="10" x1="442.946" y1="805" x2="442.946" y2="799"/>
		
			<line fill="none" stroke="#1D1D1B" stroke-miterlimit="10" stroke-dasharray="11.9104,11.9104" x1="442.946" y1="787.09" x2="442.946" y2="6.955"/>
		<line fill="none" stroke="#1D1D1B" stroke-miterlimit="10" x1="442.946" y1="1" x2="442.946" y2="-5"/>
	</g>
</g>
<rect x="292.501" y="349" fill="none" stroke="#C6C6C5" stroke-miterlimit="10" width="107" height="146.5"/>
<g>
	<rect x="74.001" y="390.25" fill="#FFFFFF" stroke="#C6C6C5" stroke-miterlimit="10" width="79.5" height="64"/>
	<line fill="none" stroke="#C6C6C5" stroke-miterlimit="10" x1="74.001" y1="399" x2="153.501" y2="399"/>
	<line fill="none" stroke="#C6C6C5" stroke-miterlimit="10" x1="84.751" y1="390.25" x2="84.751" y2="454.25"/>
	<line fill="none" stroke="#C6C6C5" stroke-miterlimit="10" x1="108.751" y1="390.25" x2="108.751" y2="454.25"/>
	<line fill="none" stroke="#C6C6C5" stroke-miterlimit="10" x1="131.751" y1="390.25" x2="131.751" y2="454.25"/>
	<line fill="none" stroke="#C6C6C5" stroke-miterlimit="10" x1="140.751" y1="390.25" x2="140.751" y2="454.25"/>
</g>
<g>
	<rect x="306.251" y="390.25" fill="#FFFFFF" stroke="#C6C6C5" stroke-miterlimit="10" width="79.5" height="64"/>
	<line fill="none" stroke="#C6C6C5" stroke-miterlimit="10" x1="306.251" y1="399" x2="385.751" y2="399"/>
	<line fill="none" stroke="#C6C6C5" stroke-miterlimit="10" x1="317.001" y1="390.25" x2="317.001" y2="454.25"/>
	<line fill="none" stroke="#C6C6C5" stroke-miterlimit="10" x1="341.001" y1="390.25" x2="341.001" y2="454.25"/>
	<line fill="none" stroke="#C6C6C5" stroke-miterlimit="10" x1="364.001" y1="390.25" x2="364.001" y2="454.25"/>
	<line fill="none" stroke="#C6C6C5" stroke-miterlimit="10" x1="373.001" y1="390.25" x2="373.001" y2="454.25"/>
</g>
<text transform="matrix(1 0 0 1 74.001 74.625)"><tspan x="0" y="0" fill="#1D1D1B" font-family="'Roboto-Regular'" font-size="18">Traditional documentary modelizations</tspan><tspan x="0" y="14.4" fill="#1D1D1B" font-family="'Roboto-Regular'" font-size="12">solidarity between a resource</tspan><tspan x="0" y="28.8" fill="#1D1D1B" font-family="'Roboto-Regular'" font-size="12">and its materialization within the document</tspan></text>
<text transform="matrix(1 0 0 1 88.751 421)"><tspan x="0" y="0" fill="#1D1D1B" font-family="'Roboto-Regular'" font-size="9">table</tspan><tspan x="0" y="10.8" fill="#1D1D1B" font-family="'Roboto-Regular'" font-size="9">resource</tspan></text>
<text transform="matrix(1 0 0 1 316.001 416)"><tspan x="0" y="0" fill="#1D1D1B" font-family="'Roboto-Regular'" font-size="9">materialization</tspan><tspan x="0" y="10.8" fill="#1D1D1B" font-family="'Roboto-Regular'" font-size="9">as table</tspan></text>
<g>
	<g>
		<line fill="none" stroke="#575756" stroke-miterlimit="10" x1="165.001" y1="422.25" x2="277.916" y2="422.25"/>
		<g>
			<polygon fill="#575756" points="274.604,426.34 273.921,425.607 277.533,422.251 273.921,418.894 274.604,418.161 
				279.001,422.251 			"/>
		</g>
	</g>
</g>
<text transform="matrix(1 0 0 1 179.0034 726.875)"><tspan x="0" y="0" fill="#1D1D1B" font-family="'Roboto-Regular'" font-size="9">rhetoric operations :</tspan><tspan x="0" y="10.8" fill="#1D1D1B" font-family="'Roboto-Regular'" font-size="9">localization within the text</tspan></text>
<rect x="960.446" y="116.625" fill="none" stroke="#C6C6C5" stroke-miterlimit="10" width="107" height="146.5"/>
<rect x="960.446" y="333.75" fill="none" stroke="#C6C6C5" stroke-miterlimit="10" width="107" height="146.5"/>
<rect x="960.446" y="509.625" fill="none" stroke="#C6C6C5" stroke-miterlimit="10" width="107" height="146.5"/>
<text transform="matrix(1 0 0 1 485.9463 74.625)"><tspan x="0" y="0" fill="#1D1D1B" font-family="'Roboto-Regular'" font-size="18">Peritext documentary modelization</tspan><tspan x="0" y="14.4" fill="#1D1D1B" font-family="'Roboto-Regular'" font-size="12">multiplying possible materializations</tspan><tspan x="0" y="28.8" fill="#1D1D1B" font-family="'Roboto-Regular'" font-size="12">of a given resource</tspan></text>
<g>
	<rect x="476.946" y="375" fill="#FFFFFF" stroke="#C6C6C5" stroke-miterlimit="10" width="79.5" height="64"/>
	<line fill="none" stroke="#C6C6C5" stroke-miterlimit="10" x1="476.946" y1="383.75" x2="556.446" y2="383.75"/>
	<line fill="none" stroke="#C6C6C5" stroke-miterlimit="10" x1="487.696" y1="375" x2="487.696" y2="439"/>
	<line fill="none" stroke="#C6C6C5" stroke-miterlimit="10" x1="511.696" y1="375" x2="511.696" y2="439"/>
	<line fill="none" stroke="#C6C6C5" stroke-miterlimit="10" x1="534.696" y1="375" x2="534.696" y2="439"/>
	<line fill="none" stroke="#C6C6C5" stroke-miterlimit="10" x1="543.696" y1="375" x2="543.696" y2="439"/>
</g>
<text transform="matrix(1 0 0 1 491.6963 405.75)"><tspan x="0" y="0" fill="#1D1D1B" font-family="'Helvetica'" font-size="9">table</tspan><tspan x="0" y="10.8" fill="#1D1D1B" font-family="'Helvetica'" font-size="9">resource</tspan></text>
<g>
	<rect x="974.196" y="157.875" fill="#FFFFFF" stroke="#C6C6C5" stroke-miterlimit="10" width="79.5" height="64"/>
	<line fill="none" stroke="#C6C6C5" stroke-miterlimit="10" x1="974.196" y1="166.625" x2="1053.696" y2="166.625"/>
	<line fill="none" stroke="#C6C6C5" stroke-miterlimit="10" x1="984.946" y1="157.875" x2="984.946" y2="221.875"/>
	<line fill="none" stroke="#C6C6C5" stroke-miterlimit="10" x1="1008.946" y1="157.875" x2="1008.946" y2="221.875"/>
	<line fill="none" stroke="#C6C6C5" stroke-miterlimit="10" x1="1031.946" y1="157.875" x2="1031.946" y2="221.875"/>
	<line fill="none" stroke="#C6C6C5" stroke-miterlimit="10" x1="1040.946" y1="157.875" x2="1040.946" y2="221.875"/>
</g>
<text transform="matrix(1 0 0 1 983.9463 183.625)"><tspan x="0" y="0" fill="#1D1D1B" font-family="'Roboto-Regular'" font-size="9">materialization</tspan><tspan x="0" y="10.8" fill="#1D1D1B" font-family="'Roboto-Regular'" font-size="9">as static</tspan><tspan x="0" y="21.6" fill="#1D1D1B" font-family="'Roboto-Regular'" font-size="9">table</tspan></text>
<text transform="matrix(1 0 0 1 983.9463 400.375)"><tspan x="0" y="0" fill="#1D1D1B" font-family="'Roboto-Regular'" font-size="9">materialization</tspan><tspan x="0" y="10.8" fill="#1D1D1B" font-family="'Roboto-Regular'" font-size="9">as reference</tspan></text>
<text transform="matrix(1 0 0 1 1126.9463 400.375)"><tspan x="0" y="0" fill="#1D1D1B" font-family="'Roboto-Regular'" font-size="9">materialization</tspan><tspan x="0" y="10.8" fill="#1D1D1B" font-family="'Roboto-Regular'" font-size="9">as interactive reference</tspan></text>
<text transform="matrix(1 0 0 1 983.9463 603.375)"><tspan x="0" y="0" fill="#1D1D1B" font-family="'Roboto-Regular'" font-size="9">materialization</tspan><tspan x="0" y="10.8" fill="#1D1D1B" font-family="'Roboto-Regular'" font-size="9">as static</tspan><tspan x="0" y="21.6" fill="#1D1D1B" font-family="'Roboto-Regular'" font-size="9">visualization</tspan></text>
<text transform="matrix(1 0 0 1 1126.9463 603.375)"><tspan x="0" y="0" fill="#1D1D1B" font-family="'Roboto-Regular'" font-size="9">materialization</tspan><tspan x="0" y="10.8" fill="#1D1D1B" font-family="'Roboto-Regular'" font-size="9">as interactive</tspan><tspan x="0" y="21.6" fill="#1D1D1B" font-family="'Roboto-Regular'" font-size="9">visualization</tspan></text>
<g>
	<rect x="1117.196" y="157.875" fill="#FFFFFF" stroke="#C6C6C5" stroke-miterlimit="10" width="79.5" height="64"/>
	<line fill="none" stroke="#C6C6C5" stroke-miterlimit="10" x1="1117.196" y1="166.625" x2="1196.696" y2="166.625"/>
	<line fill="none" stroke="#C6C6C5" stroke-miterlimit="10" x1="1127.946" y1="157.875" x2="1127.946" y2="221.875"/>
	<line fill="none" stroke="#C6C6C5" stroke-miterlimit="10" x1="1151.946" y1="157.875" x2="1151.946" y2="221.875"/>
	<line fill="none" stroke="#C6C6C5" stroke-miterlimit="10" x1="1174.946" y1="157.875" x2="1174.946" y2="221.875"/>
	<line fill="none" stroke="#C6C6C5" stroke-miterlimit="10" x1="1183.946" y1="157.875" x2="1183.946" y2="221.875"/>
</g>
<text transform="matrix(1 0 0 1 1126.9463 183.625)"><tspan x="0" y="0" fill="#1D1D1B" font-family="'Roboto-Regular'" font-size="9">materialization</tspan><tspan x="0" y="10.8" fill="#1D1D1B" font-family="'Roboto-Regular'" font-size="9">as interactive </tspan><tspan x="0" y="21.6" fill="#1D1D1B" font-family="'Roboto-Regular'" font-size="9">table</tspan></text>
<g>
	<g>
		<line fill="none" stroke="#575756" stroke-miterlimit="10" x1="567.946" y1="407" x2="662.862" y2="406.814"/>
		<g>
			<polygon fill="#575756" points="659.557,410.911 658.873,410.18 662.478,406.816 658.859,403.466 659.54,402.732 
				663.946,406.813 			"/>
		</g>
	</g>
</g>
<g>
	<g>
		<line fill="none" stroke="#575756" stroke-miterlimit="10" x1="567.946" y1="407" x2="663.033" y2="346.147"/>
		<g>
			<polygon fill="#575756" points="662.446,351.378 661.478,351.129 662.71,346.354 657.858,345.474 658.038,344.489 
				663.947,345.563 			"/>
		</g>
	</g>
</g>
<g>
	<g>
		<line fill="none" stroke="#575756" stroke-miterlimit="10" x1="567.946" y1="407" x2="663.022" y2="465.37"/>
		<g>
			<polygon fill="#575756" points="658.059,467.122 657.86,466.141 662.694,465.17 661.373,460.419 662.338,460.152 
				663.946,465.938 			"/>
		</g>
	</g>
</g>
<g>
	<g>
		<polyline fill="none" stroke="#575756" stroke-miterlimit="10" points="769.946,426.625 769.946,432.625 763.946,432.625 		"/>
		
			<line fill="none" stroke="#575756" stroke-miterlimit="10" stroke-dasharray="10.8571,10.8571" x1="753.089" y1="432.625" x2="693.375" y2="432.625"/>
		<polyline fill="none" stroke="#575756" stroke-miterlimit="10" points="687.946,432.625 681.946,432.625 681.946,426.625 		"/>
		
			<line fill="none" stroke="#575756" stroke-miterlimit="10" stroke-dasharray="14.75,14.75" x1="681.946" y1="411.875" x2="681.946" y2="389.75"/>
		<polyline fill="none" stroke="#575756" stroke-miterlimit="10" points="681.946,382.375 681.946,376.375 687.946,376.375 		"/>
		
			<line fill="none" stroke="#575756" stroke-miterlimit="10" stroke-dasharray="10.8571,10.8571" x1="698.804" y1="376.375" x2="758.518" y2="376.375"/>
		<polyline fill="none" stroke="#575756" stroke-miterlimit="10" points="763.946,376.375 769.946,376.375 769.946,382.375 		"/>
		
			<line fill="none" stroke="#575756" stroke-miterlimit="10" stroke-dasharray="14.75,14.75" x1="769.946" y1="397.125" x2="769.946" y2="419.25"/>
	</g>
</g>
<text transform="matrix(1 0 0 1 691.9463 400.375)"><tspan x="0" y="0" fill="#1D1D1B" font-family="'Roboto-Regular'" font-size="9">bibliographic</tspan><tspan x="0" y="10.8" fill="#1D1D1B" font-family="'Roboto-Regular'" font-size="9">contextualization</tspan></text>
<g>
	<g>
		<polyline fill="none" stroke="#575756" stroke-miterlimit="10" points="769.946,363.375 769.946,369.375 763.946,369.375 		"/>
		
			<line fill="none" stroke="#575756" stroke-miterlimit="10" stroke-dasharray="10.8571,10.8571" x1="753.089" y1="369.375" x2="693.375" y2="369.375"/>
		<polyline fill="none" stroke="#575756" stroke-miterlimit="10" points="687.946,369.375 681.946,369.375 681.946,363.375 		"/>
		
			<line fill="none" stroke="#575756" stroke-miterlimit="10" stroke-dasharray="14.75,14.75" x1="681.946" y1="348.625" x2="681.946" y2="326.5"/>
		<polyline fill="none" stroke="#575756" stroke-miterlimit="10" points="681.946,319.125 681.946,313.125 687.946,313.125 		"/>
		
			<line fill="none" stroke="#575756" stroke-miterlimit="10" stroke-dasharray="10.8571,10.8571" x1="698.804" y1="313.125" x2="758.518" y2="313.125"/>
		<polyline fill="none" stroke="#575756" stroke-miterlimit="10" points="763.946,313.125 769.946,313.125 769.946,319.125 		"/>
		
			<line fill="none" stroke="#575756" stroke-miterlimit="10" stroke-dasharray="14.75,14.75" x1="769.946" y1="333.875" x2="769.946" y2="356"/>
	</g>
</g>
<text transform="matrix(1 0 0 1 691.9463 337.125)"><tspan x="0" y="0" fill="#1D1D1B" font-family="'Roboto-Regular'" font-size="9">table</tspan><tspan x="0" y="10.8" fill="#1D1D1B" font-family="'Roboto-Regular'" font-size="9">contextualization</tspan></text>
<g>
	<g>
		<polyline fill="none" stroke="#575756" stroke-miterlimit="10" points="769.946,492.375 769.946,498.375 763.946,498.375 		"/>
		
			<line fill="none" stroke="#575756" stroke-miterlimit="10" stroke-dasharray="10.8571,10.8571" x1="753.089" y1="498.375" x2="693.375" y2="498.375"/>
		<polyline fill="none" stroke="#575756" stroke-miterlimit="10" points="687.946,498.375 681.946,498.375 681.946,492.375 		"/>
		
			<line fill="none" stroke="#575756" stroke-miterlimit="10" stroke-dasharray="14.75,14.75" x1="681.946" y1="477.625" x2="681.946" y2="455.5"/>
		<polyline fill="none" stroke="#575756" stroke-miterlimit="10" points="681.946,448.125 681.946,442.125 687.946,442.125 		"/>
		
			<line fill="none" stroke="#575756" stroke-miterlimit="10" stroke-dasharray="10.8571,10.8571" x1="698.804" y1="442.125" x2="758.518" y2="442.125"/>
		<polyline fill="none" stroke="#575756" stroke-miterlimit="10" points="763.946,442.125 769.946,442.125 769.946,448.125 		"/>
		
			<line fill="none" stroke="#575756" stroke-miterlimit="10" stroke-dasharray="14.75,14.75" x1="769.946" y1="462.875" x2="769.946" y2="485"/>
	</g>
</g>
<text transform="matrix(1 0 0 1 691.9463 466.125)"><tspan x="0" y="0" fill="#1D1D1B" font-family="'Roboto-Regular'" font-size="9">visualization</tspan><tspan x="0" y="10.8" fill="#1D1D1B" font-family="'Roboto-Regular'" font-size="9">contextualization</tspan></text>
<g>
	<g>
		<line fill="none" stroke="#575756" stroke-miterlimit="10" x1="784.946" y1="470.25" x2="948.053" y2="582.261"/>
		<g>
			<polygon fill="#575756" points="943.006,583.757 942.858,582.767 947.735,582.045 946.659,577.232 947.636,577.015 
				948.945,582.876 			"/>
		</g>
	</g>
</g>
<g>
	<g>
		<line fill="none" stroke="#575756" stroke-miterlimit="10" x1="784.946" y1="404.5" x2="947.862" y2="404.5"/>
		<g>
			<polygon fill="#575756" points="944.548,408.59 943.866,407.857 947.478,404.501 943.866,401.144 944.548,400.411 
				948.946,404.501 			"/>
		</g>
	</g>
</g>
<g>
	<g>
		<line fill="none" stroke="#575756" stroke-miterlimit="10" x1="784.946" y1="344.062" x2="948.156" y2="190.618"/>
		<g>
			<polygon fill="#575756" points="948.544,195.867 947.545,195.801 947.877,190.882 942.946,190.909 942.941,189.908 
				948.947,189.876 			"/>
		</g>
	</g>
</g>
<g>
	<rect x="1084.446" y="333.75" fill="none" stroke="#C6C6C5" stroke-miterlimit="10" width="163.5" height="146.5"/>
	<polyline fill="none" stroke="#C6C6C5" stroke-miterlimit="10" points="1084.446,350.625 1102.946,350.625 1113.946,337.125 
		1150.946,337.125 1166.196,350.625 1247.946,350.625 	"/>
</g>
<g>
	<rect x="1084.446" y="116.625" fill="none" stroke="#C6C6C5" stroke-miterlimit="10" width="163.5" height="146.5"/>
	<polyline fill="none" stroke="#C6C6C5" stroke-miterlimit="10" points="1084.446,133.5 1102.946,133.5 1113.946,120 1150.946,120 
		1166.196,133.5 1247.946,133.5 	"/>
</g>
<g>
	<rect x="1084.446" y="509.625" fill="none" stroke="#C6C6C5" stroke-miterlimit="10" width="163.5" height="146.5"/>
	<polyline fill="none" stroke="#C6C6C5" stroke-miterlimit="10" points="1084.446,526.5 1102.946,526.5 1113.946,513 1150.946,513 
		1166.196,526.5 1247.946,526.5 	"/>
</g>
<g>
	<rect x="984.946" y="561.625" fill="#C6C6C5" width="7" height="30"/>
	<rect x="997.446" y="544.625" fill="#C6C6C5" width="7" height="47"/>
	<rect x="1009.946" y="576.625" fill="#C6C6C5" width="7" height="15"/>
	<rect x="1022.446" y="561.625" fill="#C6C6C5" width="7" height="30"/>
	<rect x="1034.946" y="551.625" fill="#C6C6C5" width="7" height="40"/>
</g>
<g>
	<rect x="1128.446" y="561.625" fill="#C6C6C5" width="7" height="30"/>
	<rect x="1140.946" y="544.625" fill="#C6C6C5" width="7" height="47"/>
	<rect x="1153.446" y="576.625" fill="#C6C6C5" width="7" height="15"/>
	<rect x="1165.946" y="561.625" fill="#C6C6C5" width="7" height="30"/>
	<rect x="1178.446" y="551.625" fill="#C6C6C5" width="7" height="40"/>
</g>
<text transform="matrix(1 0 0 1 567.9463 726.875)"><tspan x="0" y="0" fill="#1D1D1B" font-family="'Roboto-Regular'" font-size="9">rhetoric operation n째1 :</tspan><tspan x="0" y="10.8" fill="#1D1D1B" font-family="'Roboto-Regular'" font-size="9">contextualisation type</tspan></text>
<text transform="matrix(1 0 0 1 798.4463 726.875)"><tspan x="0" y="0" fill="#1D1D1B" font-family="'Roboto-Regular'" font-size="9">rhetoric operation n째2 :</tspan><tspan x="0" y="10.8" fill="#1D1D1B" font-family="'Roboto-Regular'" font-size="9">contextualization parameters</tspan></text>
<text transform="matrix(1 0 0 1 798.4463 756.875)"><tspan x="0" y="0" fill="#1D1D1B" font-family="'Roboto-Regular'" font-size="9">rhetoric operation n째3 :</tspan><tspan x="0" y="10.8" fill="#1D1D1B" font-family="'Roboto-Regular'" font-size="9">localization within the text</tspan></text>
<polyline fill="none" stroke="#C6C6C5" stroke-miterlimit="10" points="153.501,673.75 153.501,707.339 292.501,707.339 
	292.501,673.75 "/>
<polyline fill="none" stroke="#C6C6C5" stroke-miterlimit="10" points="546.446,673.75 546.446,707.339 685.446,707.339 
	685.446,673.75 "/>
<text transform="matrix(1 0 0 1 967.9463 726.875)"><tspan x="0" y="0" fill="#1D1D1B" font-family="'Roboto-Regular'" font-size="9">rhetoric operation n째4 :</tspan><tspan x="0" y="10.8" fill="#1D1D1B" font-family="'Roboto-Regular'" font-size="9">contextualization parameter specific to each format</tspan></text>
<polyline fill="none" stroke="#C6C6C5" stroke-miterlimit="10" points="960.446,673.75 960.446,707.339 1247.946,707.339 
	1247.946,673.75 "/>
<polyline fill="none" stroke="#C6C6C5" stroke-miterlimit="10" points="797.446,673.75 797.446,707.339 936.446,707.339 
	936.446,673.75 "/>
<rect fill="none" width="1280" height="800"/>
</svg>
