<?xml version="1.0" encoding="utf-8"?>
<!-- Generator: Adobe Illustrator 15.0.0, SVG Export Plug-In . SVG Version: 6.00 Build 0)  -->
<!DOCTYPE svg PUBLIC "-//W3C//DTD SVG 1.1//EN" "http://www.w3.org/Graphics/SVG/1.1/DTD/svg11.dtd">
<svg version="1.1" id="Calque_1" xmlns="http://www.w3.org/2000/svg" xmlns:xlink="http://www.w3.org/1999/xlink" x="0px" y="0px"
	 width="1280px" height="272px" viewBox="0 0 1280 272" enable-background="new 0 0 1280 272" xml:space="preserve">
<g>
	<circle fill="#92BEFF" cx="455.758" cy="90.481" r="40.644"/>
	<path fill="none" stroke="#000000" stroke-linejoin="round" stroke-miterlimit="10" d="M445.155,93.711
		c0-5.824,3.141-10.593,6.983-10.593c3.84,0,6.983,0,6.983,0"/>
	<path fill="none" stroke="#000000" stroke-linejoin="round" stroke-miterlimit="10" d="M463.728,84.984c0,0,3.181,0,7.06,0
		c3.879,0,7.06,3.547,7.06,7.881v1.645c0,4.334-3.548,7.88-7.883,7.88H455.35c-3.059,0-5.736-1.772-7.036-4.348"/>
	<path fill="none" stroke="#000000" stroke-linejoin="round" stroke-miterlimit="10" d="M460.939,87.941
		c0,4.334-3.551,7.88-7.883,7.88h-14.614c-4.334,0-7.88-3.546-7.88-7.88v-1.643c0-4.336,3.546-7.883,7.88-7.883h14.614
		c4.337,0,7.883,3.547,7.883,7.883V87.941z"/>
</g>
<g>
	<rect x="955.299" y="39" fill="#EF6D3F" width="97.545" height="102.964"/>
	<polygon fill="none" stroke="#FFFFFF" stroke-miterlimit="10" points="994.448,78.204 1019.114,92.445 994.448,106.686 	"/>
	<path fill="none" stroke="#FFFFFF" stroke-miterlimit="10" d="M1004.071,61.354c17.174,0,31.091,13.922,31.091,31.092
		c0,17.173-13.917,31.094-31.091,31.094c-17.172,0-31.091-13.921-31.091-31.094C972.98,75.275,986.899,61.354,1004.071,61.354z"/>
</g>
<g>
	<rect x="769.817" y="39" fill="#F2CF00" width="97.545" height="102.964"/>
	<line fill="none" stroke="#FFFFFF" stroke-miterlimit="10" x1="769.817" y1="62.031" x2="867.362" y2="62.031"/>
	<line fill="none" stroke="#FFFFFF" stroke-miterlimit="10" x1="769.817" y1="88.674" x2="867.362" y2="88.674"/>
	<line fill="none" stroke="#FFFFFF" stroke-miterlimit="10" x1="769.817" y1="115.32" x2="867.362" y2="115.32"/>
	<line fill="none" stroke="#FFFFFF" stroke-miterlimit="10" x1="803.01" y1="39" x2="803.01" y2="141.964"/>
	<line fill="none" stroke="#FFFFFF" stroke-miterlimit="10" x1="834.509" y1="39" x2="834.509" y2="141.964"/>
</g>
<g>
	<rect x="584.338" y="39" fill="#F7B000" stroke="#FFFFFF" stroke-miterlimit="10" width="97.544" height="102.964"/>
	<rect x="616.853" y="39" fill="#F7B000" stroke="#FFFFFF" stroke-miterlimit="10" width="65.03" height="83.997"/>
	<rect x="584.338" y="57.967" fill="#F7B000" stroke="#FFFFFF" stroke-miterlimit="10" width="65.03" height="83.997"/>
</g>
<g>
	<circle fill="#DDC8FC" cx="286.536" cy="90.481" r="40.644"/>
	<g>
		<circle fill="none" stroke="#000000" stroke-miterlimit="10" cx="286.536" cy="90.487" r="21.862"/>
		<line fill="none" stroke="#000000" stroke-miterlimit="10" x1="286.536" y1="74.338" x2="286.536" y2="93.862"/>
		<path fill="none" stroke="#000000" stroke-miterlimit="10" d="M286.536,97.673c1.577,0,2.858,1.28,2.858,2.857
			c0,1.583-1.281,2.86-2.858,2.86s-2.858-1.277-2.858-2.86C283.678,98.953,284.959,97.673,286.536,97.673z"/>
	</g>
</g>
<g>
	<rect x="1140.779" y="39" fill="#CC4A27" width="97.544" height="102.967"/>
	<g enable-background="new    ">
		<path fill="#FFFFFF" d="M1158.595,90.535l21.369-11.006v3.178l-18.006,9.029v0.09l18.006,9.028v3.177l-21.369-11.01V90.535z"/>
		<path fill="#FFFFFF" d="M1182.956,105.825l12.809-33.395h3.177l-12.894,33.395H1182.956z"/>
		<path fill="#FFFFFF" d="M1223.216,93.064l-21.372,10.961v-3.176l18.147-9.028V91.73l-18.147-9.027v-3.178l21.372,10.911V93.064
			L1223.216,93.064z"/>
	</g>
</g>
<g>
	<circle fill="#C7F9ED" cx="117.313" cy="90.481" r="40.644"/>
	<g>
		<polyline fill="none" stroke="#000333" stroke-linecap="round" stroke-linejoin="round" stroke-miterlimit="10" points="
			106.109,73.658 106.109,68.693 126.786,68.693 133.248,76.549 133.248,107.417 128.114,107.417 		"/>
		<polygon fill="none" stroke="#000333" stroke-linecap="round" stroke-linejoin="round" stroke-miterlimit="10" points="
			100.971,73.656 121.647,73.656 128.114,81.51 128.114,112.381 100.971,112.381 		"/>
	</g>
	<path fill="none" stroke="#000333" stroke-linecap="round" stroke-linejoin="round" stroke-miterlimit="10" d="M140.18,119.404"/>
	<rect x="79.529" y="54.786" fill="none" width="76.522" height="72.874"/>
</g>
<text transform="matrix(1 0 0 1 63.3633 196.9111)"><tspan x="0" y="0" font-family="'Roboto-Medium'" font-size="20">bibliographic</tspan><tspan x="16.299" y="24" font-family="'Roboto-Medium'" font-size="20">reference</tspan></text>
<text transform="matrix(1 0 0 1 251.0542 196.9111)"><tspan x="0" y="0" font-family="'Roboto-Medium'" font-size="20">glossary</tspan><tspan x="15.439" y="24" font-family="'Roboto-Medium'" font-size="20">entry</tspan></text>
<text transform="matrix(1 0 0 1 413.4673 196.9111)"><tspan x="0" y="0" font-family="'Roboto-Medium'" font-size="20">hypertext</tspan><tspan x="26.206" y="24" font-family="'Roboto-Medium'" font-size="20">link</tspan></text>
<text transform="matrix(1 0 0 1 593.4722 196.9111)" font-family="'Roboto-Medium'" font-size="20">image(s)</text>
<text transform="matrix(1 0 0 1 798.623 196.9111)"><tspan x="0" y="0" font-family="'Roboto-Medium'" font-size="20">data</tspan><tspan x="-2.387" y="24" font-family="'Roboto-Medium'" font-size="20">table</tspan></text>
<text transform="matrix(1 0 0 1 976.6582 196.9111)"><tspan x="0" y="0" font-family="'Roboto-Medium'" font-size="20">online</tspan><tspan x="3.189" y="24" font-family="'Roboto-Medium'" font-size="20">video</tspan></text>
<text transform="matrix(1 0 0 1 1142.4961 196.9111)"><tspan x="0" y="0" font-family="'Roboto-Medium'" font-size="20">embedded</tspan><tspan x="25.293" y="24" font-family="'Roboto-Medium'" font-size="20">code</tspan></text>
<rect fill="none" width="1280" height="272"/>
</svg>
