<?xml version="1.0" encoding="utf-8"?>
<!-- Generator: Adobe Illustrator 15.0.0, SVG Export Plug-In . SVG Version: 6.00 Build 0)  -->
<!DOCTYPE svg PUBLIC "-//W3C//DTD SVG 1.1//EN" "http://www.w3.org/Graphics/SVG/1.1/DTD/svg11.dtd">
<svg version="1.1" id="Calque_1" xmlns="http://www.w3.org/2000/svg" xmlns:xlink="http://www.w3.org/1999/xlink" x="0px" y="0px"
	 width="1280px" height="333px" viewBox="0 0 1280 333" enable-background="new 0 0 1280 333" xml:space="preserve">
<g>
	<circle fill="#92BEFF" cx="455.758" cy="122.571" r="40.644"/>
	<path fill="none" stroke="#000000" stroke-linejoin="round" stroke-miterlimit="10" d="M445.155,125.799
		c0-5.824,3.141-10.592,6.983-10.592c3.84,0,6.983,0,6.983,0"/>
	<path fill="none" stroke="#000000" stroke-linejoin="round" stroke-miterlimit="10" d="M463.728,117.074c0,0,3.181,0,7.06,0
		c3.879,0,7.06,3.547,7.06,7.881v1.643c0,4.335-3.548,7.881-7.883,7.881H455.35c-3.059,0-5.736-1.773-7.036-4.348"/>
	<path fill="none" stroke="#000000" stroke-linejoin="round" stroke-miterlimit="10" d="M460.939,120.031
		c0,4.334-3.551,7.879-7.883,7.879h-14.614c-4.334,0-7.88-3.545-7.88-7.879v-1.645c0-4.335,3.546-7.882,7.88-7.882h14.614
		c4.337,0,7.883,3.547,7.883,7.882V120.031z"/>
</g>
<g>
	<rect x="955.299" y="71.089" fill="#EF6D3F" width="97.545" height="102.964"/>
	<polygon fill="none" stroke="#FFFFFF" stroke-miterlimit="10" points="994.448,110.293 1019.114,124.534 994.448,138.775 	"/>
	<path fill="none" stroke="#FFFFFF" stroke-miterlimit="10" d="M1004.071,93.443c17.174,0,31.091,13.92,31.091,31.091
		c0,17.173-13.917,31.095-31.091,31.095c-17.172,0-31.091-13.922-31.091-31.095C972.98,107.363,986.899,93.443,1004.071,93.443z"/>
</g>
<g>
	<rect x="769.817" y="71.089" fill="#F2CF00" width="97.545" height="102.964"/>
	<line fill="none" stroke="#FFFFFF" stroke-miterlimit="10" x1="769.817" y1="94.12" x2="867.362" y2="94.12"/>
	<line fill="none" stroke="#FFFFFF" stroke-miterlimit="10" x1="769.817" y1="120.764" x2="867.362" y2="120.764"/>
	<line fill="none" stroke="#FFFFFF" stroke-miterlimit="10" x1="769.817" y1="147.41" x2="867.362" y2="147.41"/>
	<line fill="none" stroke="#FFFFFF" stroke-miterlimit="10" x1="803.01" y1="71.089" x2="803.01" y2="174.053"/>
	<line fill="none" stroke="#FFFFFF" stroke-miterlimit="10" x1="834.509" y1="71.089" x2="834.509" y2="174.053"/>
</g>
<g>
	<rect x="584.338" y="71.089" fill="#F7B000" stroke="#FFFFFF" stroke-miterlimit="10" width="97.544" height="102.964"/>
	<rect x="616.853" y="71.089" fill="#F7B000" stroke="#FFFFFF" stroke-miterlimit="10" width="65.03" height="83.997"/>
	<rect x="584.338" y="90.057" fill="#F7B000" stroke="#FFFFFF" stroke-miterlimit="10" width="65.03" height="83.996"/>
</g>
<g>
	<circle fill="#DDC8FC" cx="286.536" cy="122.571" r="40.644"/>
	<g>
		<circle fill="none" stroke="#000000" stroke-miterlimit="10" cx="286.536" cy="122.575" r="21.862"/>
		<line fill="none" stroke="#000000" stroke-miterlimit="10" x1="286.536" y1="106.428" x2="286.536" y2="125.951"/>
		<path fill="none" stroke="#000000" stroke-miterlimit="10" d="M286.536,129.762c1.577,0,2.858,1.28,2.858,2.857
			c0,1.582-1.281,2.861-2.858,2.861s-2.858-1.279-2.858-2.861C283.678,131.042,284.959,129.762,286.536,129.762z"/>
	</g>
</g>
<g>
	<rect x="1140.779" y="71.089" fill="#CC4A27" width="97.544" height="102.967"/>
	<g enable-background="new    ">
		<path fill="#FFFFFF" d="M1158.595,122.624l21.369-11.005v3.178l-18.006,9.028v0.09l18.006,9.028v3.177l-21.369-11.009V122.624z"/>
		<path fill="#FFFFFF" d="M1182.956,137.914l12.809-33.395h3.177l-12.894,33.395H1182.956z"/>
		<path fill="#FFFFFF" d="M1223.216,125.153l-21.372,10.962v-3.177l18.147-9.028v-0.09l-18.147-9.029v-3.178l21.372,10.912V125.153
			L1223.216,125.153z"/>
	</g>
</g>
<g>
	<circle fill="#C7F9ED" cx="117.313" cy="122.571" r="40.644"/>
	<g>
		<polyline fill="none" stroke="#000333" stroke-linecap="round" stroke-linejoin="round" stroke-miterlimit="10" points="
			106.109,105.747 106.109,100.783 126.786,100.783 133.248,108.639 133.248,139.506 128.114,139.506 		"/>
		<polygon fill="none" stroke="#000333" stroke-linecap="round" stroke-linejoin="round" stroke-miterlimit="10" points="
			100.971,105.744 121.647,105.744 128.114,113.6 128.114,144.469 100.971,144.469 		"/>
	</g>
	<path fill="none" stroke="#000333" stroke-linecap="round" stroke-linejoin="round" stroke-miterlimit="10" d="M140.18,151.492"/>
	<rect x="79.529" y="86.875" fill="none" width="76.522" height="72.873"/>
</g>
<text transform="matrix(1 0 0 1 77.2354 229)"><tspan x="0" y="0" font-family="'Roboto-Regular'" font-size="20">référence  </tspan><tspan x="-25.146" y="24" font-family="'Roboto-Regular'" font-size="20">bibliographique</tspan></text>
<text transform="matrix(1 0 0 1 261.1372 229)"><tspan x="0" y="0" font-family="'Roboto-Regular'" font-size="20">entrée</tspan><tspan x="-26.245" y="24" font-family="'Roboto-Regular'" font-size="20">de glossaire</tspan></text>
<text transform="matrix(1 0 0 1 439.8003 229)"><tspan x="0" y="0" font-family="'Roboto-Regular'" font-size="20">lien</tspan><tspan x="-31.411" y="24" font-family="'Roboto-Regular'" font-size="20">hypertexte</tspan></text>
<text transform="matrix(1 0 0 1 593.5356 229)" font-family="'Roboto-Regular'" font-size="20">image(s)</text>
<text transform="matrix(1 0 0 1 785.1035 229)"><tspan x="0" y="0" font-family="'Roboto-Regular'" font-size="20">tableau</tspan><tspan x="-18.35" y="24" font-family="'Roboto-Regular'" font-size="20">de données</tspan></text>
<text transform="matrix(1 0 0 1 979.9199 229)"><tspan x="0" y="0" font-family="'Roboto-Regular'" font-size="20">vidéo</tspan><tspan x="-10.893" y="24" font-family="'Roboto-Regular'" font-size="20">en ligne</tspan></text>
<text transform="matrix(1 0 0 1 1167.7148 229)"><tspan x="0" y="0" font-family="'Roboto-Regular'" font-size="20">code</tspan><tspan x="-23.422" y="24" font-family="'Roboto-Regular'" font-size="20">embarqué</tspan></text>
<rect fill="none" width="1280" height="333"/>
</svg>
